<svg width="48" height="48" viewBox="0 0 48 48" fill="none" xmlns="http://www.w3.org/2000/svg">
<path d="M24 28.7826L13.8544 38.9565C13.213 39.5942 12.3967 39.913 11.4055 39.913C10.4142 39.913 9.59791 39.5942 8.95652 38.9565C8.31884 38.3188 8 37.5072 8 36.5217C8 35.5362 8.31884 34.7246 8.95652 34.087L19.1304 23.913L8.95652 13.8546C8.31884 13.2132 8 12.3968 8 11.4056C8 10.4143 8.31884 9.59791 8.95652 8.95652C9.5942 8.31884 10.4058 8 11.3913 8C12.3768 8 13.1884 8.31884 13.8261 8.95652L24 19.1304L34.0584 8.95652C34.6999 8.31884 35.5162 8 36.5075 8C37.4988 8 38.3151 8.31884 38.9565 8.95652C39.6522 9.65217 40 10.4783 40 11.4348C40 12.3913 39.6522 13.1884 38.9565 13.8261L28.7826 23.913L38.9565 34.0586C39.5942 34.7 39.913 35.5163 39.913 36.5076C39.913 37.4988 39.5942 38.3151 38.9565 38.9565C38.2609 39.6522 37.4348 40 36.4783 40C35.5217 40 34.7246 39.6522 34.087 38.9565L24 28.7826Z" fill="#333333"/>
</svg>
