<svg width="96" height="96" viewBox="0 0 96 96" fill="none" xmlns="http://www.w3.org/2000/svg">
<g clip-path="url(#clip0_11_2)" filter="url(#filter0_d_11_2)">
<path d="M62 56H58.84L57.72 54.92C61.64 50.36 64 44.44 64 38C64 23.64 52.36 12 38 12C23.64 12 12 23.64 12 38C12 52.36 23.64 64 38 64C44.44 64 50.36 61.64 54.92 57.72L56 58.84V62L76 81.96L81.96 76L62 56ZM38 56C28.04 56 20 47.96 20 38C20 28.04 28.04 20 38 20C47.96 20 56 28.04 56 38C56 47.96 47.96 56 38 56Z" fill="black"/>
</g>
<defs>
<filter id="filter0_d_11_2" x="-4" y="0" width="104" height="104" filterUnits="userSpaceOnUse" color-interpolation-filters="sRGB">
<feFlood flood-opacity="0" result="BackgroundImageFix"/>
<feColorMatrix in="SourceAlpha" type="matrix" values="0 0 0 0 0 0 0 0 0 0 0 0 0 0 0 0 0 0 127 0" result="hardAlpha"/>
<feOffset dy="4"/>
<feGaussianBlur stdDeviation="2"/>
<feComposite in2="hardAlpha" operator="out"/>
<feColorMatrix type="matrix" values="0 0 0 0 0 0 0 0 0 0 0 0 0 0 0 0 0 0 0.25 0"/>
<feBlend mode="normal" in2="BackgroundImageFix" result="effect1_dropShadow_11_2"/>
<feBlend mode="normal" in="SourceGraphic" in2="effect1_dropShadow_11_2" result="shape"/>
</filter>
<clipPath id="clip0_11_2">
<rect width="96" height="96" fill="white"/>
</clipPath>
</defs>
</svg>
